<svg width="585" height="109" viewBox="0 0 585 109" fill="none" xmlns="http://www.w3.org/2000/svg">
<g clip-path="url(#clip0_2190_387)">
<path d="M205.933 43.0553L214.29 28.6128C215.017 27.2049 214.472 25.4791 213.109 24.7524C211.792 24.0712 210.157 24.4799 209.34 25.7516L200.801 40.4666C187.812 34.9712 173.188 34.9712 160.199 40.4666L151.66 25.7516C150.797 24.4345 149.026 24.0257 147.709 24.8432C146.437 25.6607 146.029 27.2957 146.71 28.6128L155.067 43.0553C140.987 51.0941 131.813 65.582 130.542 81.7503H230.458C229.187 65.582 220.012 51.0941 205.933 43.0553ZM157.792 69.2607C154.658 69.2607 152.115 66.7174 152.115 63.5837C152.115 60.4499 154.658 57.9066 157.792 57.9066C160.925 57.9066 163.469 60.4499 163.469 63.5837C163.469 66.7174 160.925 69.2607 157.792 69.2607ZM203.208 69.2607C200.075 69.2607 197.531 66.7174 197.531 63.5837C197.531 60.4499 200.075 57.9066 203.208 57.9066C206.342 57.9066 208.885 60.4499 208.885 63.5837C208.885 66.7174 206.342 69.2607 203.208 69.2607Z" fill="#D9D9D9"/>
</g>
<path d="M271.167 40.8753V31.792H280.25V40.8753H271.167ZM271.167 77.2087V49.9587H280.25V77.2087H271.167ZM302.958 77.2087H293.875C291.377 77.2087 289.239 76.3193 287.46 74.5404C285.681 72.7616 284.792 70.6232 284.792 68.1253V40.8753C284.792 38.3774 285.681 36.239 287.46 34.4602C289.239 32.6814 291.377 31.792 293.875 31.792H302.958C305.456 31.792 307.595 32.6814 309.373 34.4602C311.152 36.239 312.042 38.3774 312.042 40.8753V68.1253C312.042 70.6232 311.152 72.7616 309.373 74.5404C307.595 76.3193 305.456 77.2087 302.958 77.2087ZM293.875 68.1253H302.958V40.8753H293.875V68.1253ZM316.583 77.2087V68.1253H334.75V59.042H325.667C323.169 59.042 321.03 58.1526 319.252 56.3738C317.473 54.5949 316.583 52.4566 316.583 49.9587V40.8753C316.583 38.3774 317.473 36.239 319.252 34.4602C321.03 32.6814 323.169 31.792 325.667 31.792H343.833V40.8753H325.667V49.9587H334.75C337.248 49.9587 339.386 50.8481 341.165 52.6269C342.944 54.4057 343.833 56.5441 343.833 59.042V68.1253C343.833 70.6232 342.944 72.7616 341.165 74.5404C339.386 76.3193 337.248 77.2087 334.75 77.2087H316.583Z" fill="#D9D9D9"/>
<path d="M549.234 4.54199C543.998 4.84628 537.986 7.76359 534.412 11.4787C531.183 14.8577 528.635 19.8761 529.675 24.7311C535.366 24.881 541.078 21.8881 544.498 18.1049C547.69 14.5669 550.111 9.62866 549.234 4.54199ZM549.545 24.7222C541.329 24.7222 537.894 29.7695 532.203 29.7695C526.349 29.7695 520.997 25.0416 513.912 25.0416C504.275 25.0461 489.625 33.9735 489.625 55.0059C489.625 74.14 506.964 95.3753 516.751 95.3753C522.696 95.4344 524.137 91.6374 532.203 91.5965C540.278 91.5375 542.021 95.4253 547.975 95.3753C554.678 95.3254 559.913 87.9589 563.738 82.1229C566.481 77.9445 567.608 75.8114 569.734 71.0881C553.961 67.0914 550.822 41.655 569.734 36.3958C566.164 30.3054 555.744 24.7222 549.545 24.7222Z" fill="#D9D9D9"/>
<path d="M49.5041 9.53799C28.6125 11.8088 11.8083 28.613 9.53748 49.0505C7.26665 70.3963 19.5291 89.4713 38.15 96.738C39.5125 97.1921 40.875 96.2838 40.875 94.4671V87.2005C40.875 87.2005 39.0583 87.6546 36.7875 87.6546C30.4291 87.6546 27.7041 82.2046 27.25 79.0255C26.7958 77.2088 25.8875 75.8463 24.525 74.4838C23.1625 74.0296 22.7083 74.0297 22.7083 73.5755C22.7083 72.6672 24.0708 72.6672 24.525 72.6672C27.25 72.6672 29.5208 75.8463 30.4291 77.2088C32.7 80.8422 35.425 81.7505 36.7875 81.7505C38.6041 81.7505 39.9666 81.2963 40.875 80.8421C41.3291 77.663 42.6916 74.4838 45.4166 72.6672C34.9708 70.3963 27.25 64.4922 27.25 54.5005C27.25 49.5047 29.5208 44.5088 32.7 40.8755C32.2458 39.9672 31.7916 37.6963 31.7916 34.5172C31.7916 32.7005 31.7916 29.9755 33.1541 27.2505C33.1541 27.2505 39.5125 27.2505 45.8708 33.1547C48.1416 32.2463 51.3208 31.7922 54.5 31.7922C57.6791 31.7922 60.8583 32.2463 63.5833 33.1547C69.4875 27.2505 76.3 27.2505 76.3 27.2505C77.2083 29.9755 77.2083 32.7005 77.2083 34.5172C77.2083 38.1505 76.7541 39.9672 76.3 40.8755C79.4791 44.5088 81.75 49.0505 81.75 54.5005C81.75 64.4922 74.0291 70.3963 63.5833 72.6672C66.3083 74.938 68.125 79.0255 68.125 83.113V94.9213C68.125 96.2838 69.4875 97.6463 71.3041 97.1921C88.1083 90.3796 99.9166 74.0297 99.9166 54.9547C99.9166 27.7047 76.7541 6.35882 49.5041 9.53799Z" fill="#D9D9D9"/>
<path d="M448.762 9.10106C448.098 9.06195 447.422 9.09811 446.739 9.21638H446.73L383.147 20.3044C378.828 21.0591 375.625 24.8686 375.625 29.2458V79.7541C375.625 84.1314 378.828 87.9409 383.147 88.6956L446.73 99.7836H446.739C452.202 100.73 457.375 96.3841 457.375 90.8333V18.1667C457.375 13.3098 453.412 9.37488 448.762 9.10106ZM448.283 18.1667H448.292V49.9583H416.5V23.7018L448.283 18.1667ZM407.417 25.2896V49.9583H384.708V29.2458L407.417 25.2896ZM384.708 59.0417H407.417V83.7104L384.708 79.7541V59.0417ZM416.5 59.0417H448.292V90.8333H448.283L416.5 85.2982V59.0417Z" fill="#D9D9D9"/>
<defs>
<clipPath id="clip0_2190_387">
<rect width="109" height="109" fill="white" transform="translate(126)"/>
</clipPath>
</defs>
</svg>
